<svg aria-hidden="true" style="position: absolute; width: 0; height: 0; overflow: hidden;" version="1.1" xmlns="http://www.w3.org/2000/svg" xmlns:xlink="http://www.w3.org/1999/xlink">
<defs>
<symbol id="icon-user" viewBox="0 0 32 32">
<path fill="none" stroke="#fafafa" style="stroke: var(--color1, #fafafa)" stroke-linejoin="round" stroke-linecap="round" stroke-miterlimit="4" stroke-width="2.6667" d="M26.667 28c0-1.861 0-2.791-0.229-3.548-0.529-1.708-1.848-3.026-3.518-3.546l-0.038-0.010c-0.757-0.229-1.687-0.229-3.548-0.229h-6.667c-1.861 0-2.791 0-3.548 0.229-1.708 0.529-3.027 1.848-3.546 3.518l-0.010 0.038c-0.229 0.757-0.229 1.687-0.229 3.548M16 16c3.314 0 6-2.686 6-6s-2.686-6-6-6v0c-3.314 0-6 2.686-6 6s2.686 6 6 6v0z"></path>
</symbol>
<symbol id="icon-message-chat" viewBox="0 0 32 32">
<path fill="none" stroke="#fafafa" style="stroke: var(--color1, #fafafa)" stroke-linejoin="round" stroke-linecap="round" stroke-miterlimit="4" stroke-width="2.6667" d="M8.125 14.972c-0.080-0.49-0.125-1.056-0.125-1.631 0-0.003 0-0.005 0-0.008v0c0-5.891 4.807-10.667 10.737-10.667 5.929 0 10.736 4.776 10.736 10.667 0 1.331-0.245 2.605-0.693 3.78-0.093 0.243-0.14 0.365-0.16 0.46-0.019 0.077-0.031 0.166-0.032 0.258v0.001c-0.003 0.097 0.011 0.204 0.037 0.419l0.537 4.36c0.057 0.473 0.087 0.709 0.008 0.88-0.070 0.151-0.19 0.269-0.338 0.334l-0.004 0.002c-0.173 0.073-0.408 0.040-0.88-0.029l-4.245-0.623c-0.223-0.032-0.333-0.049-0.435-0.048-0.003-0-0.006-0-0.009-0-0.091 0-0.18 0.010-0.266 0.030l0.008-0.002c-0.099 0.021-0.225 0.068-0.477 0.163-1.128 0.432-2.433 0.683-3.796 0.683-0.575 0-1.14-0.045-1.692-0.13l0.061 0.008M10.176 29.333c3.953 0 7.157-3.283 7.157-7.333s-3.204-7.333-7.157-7.333c-3.953 0-7.159 3.283-7.159 7.333 0 0.813 0.129 1.597 0.369 2.329 0.1 0.309 0.151 0.464 0.168 0.569 0.017 0.111 0.020 0.173 0.013 0.284-0.007 0.107-0.033 0.227-0.087 0.468l-0.815 3.683 3.993-0.545c0.217-0.029 0.327-0.045 0.421-0.044 0.101 0 0.153 0.007 0.253 0.027 0.093 0.017 0.231 0.067 0.508 0.164 0.693 0.253 1.493 0.399 2.328 0.399 0.002 0 0.004 0 0.006 0h-0z"></path>
</symbol>
<symbol id="icon-hourglass" viewBox="0 0 32 32">
<path fill="none" stroke="#fafafa" style="stroke: var(--color1, #fafafa)" stroke-linejoin="round" stroke-linecap="round" stroke-miterlimit="4" stroke-width="2.6667" d="M24.217 2.667h-16.435c-0.616 0-1.116 0.5-1.116 1.116v0c0 0 0 0 0 0 0 3.7 1.5 7.050 3.924 9.474l1.627 1.627c0.16 0.16 0.241 0.241 0.299 0.32 0.165 0.219 0.264 0.496 0.264 0.797s-0.099 0.577-0.267 0.8l0.002-0.003c-0.095 0.116-0.193 0.221-0.297 0.318l-0.002 0.002-1.627 1.625c-2.424 2.425-3.924 5.775-3.924 9.474 0 0 0 0 0 0v-0c0 0.616 0.5 1.116 1.116 1.116h16.435c0.616 0 1.116-0.5 1.116-1.116v0c0-0 0-0 0-0 0-3.7-1.5-7.050-3.924-9.474l-1.627-1.627c-0.16-0.16-0.241-0.241-0.299-0.32-0.165-0.219-0.264-0.496-0.264-0.797s0.099-0.577 0.267-0.8l-0.002 0.003c0.057-0.077 0.137-0.157 0.299-0.32l1.627-1.625c2.424-2.425 3.924-5.775 3.924-9.474 0-0 0-0 0-0v0c0-0.616-0.5-1.116-1.116-1.116v0z"></path>
</symbol>
<symbol id="icon-brush" viewBox="0 0 32 32">
<path fill="none" stroke="#fafafa" style="stroke: var(--color1, #fafafa)" stroke-linejoin="round" stroke-linecap="round" stroke-miterlimit="4" stroke-width="2.6667" d="M17.037 20l-5.037-5.037M2.667 29.333c2.667 0 6.144 0.456 7.967-1.367 0.845-0.845 1.367-2.011 1.367-3.3 0-2.577-2.089-4.667-4.667-4.667-1.289 0-2.455 0.522-3.3 1.367v0c-1.823 1.823 0 5.3-1.367 7.967z"></path>
<path fill="none" stroke="#fafafa" style="stroke: var(--color1, #fafafa)" stroke-linejoin="round" stroke-linecap="round" stroke-miterlimit="4" stroke-width="2.6667" d="M10.667 21.333c-0.655-0.655-0.983-0.983-1.168-1.325-0.201-0.366-0.32-0.802-0.32-1.267 0-0.5 0.138-0.968 0.377-1.368l-0.007 0.012c0.197-0.336 0.537-0.651 1.217-1.28l13.157-12.184c0.526-0.502 1.24-0.811 2.027-0.811 1.623 0 2.939 1.316 2.939 2.939 0 0.786-0.309 1.5-0.812 2.028l0.001-0.001-12.183 13.157c-0.631 0.68-0.945 1.020-1.28 1.217-0.388 0.233-0.856 0.371-1.357 0.371-0.464 0-0.901-0.119-1.281-0.327l0.014 0.007c-0.343-0.185-0.671-0.512-1.325-1.168z"></path>
</symbol>
<symbol id="icon-jefferson" viewBox="0 0 117 32">
<path fill="#fafafa" style="fill: var(--color1, #fafafa)" d="M110.214 12.522l0.193-4.077-3.563 2.216-1.105-1.832 3.784-1.859-3.784-1.86 1.105-1.859 3.562 2.218-0.191-4.078h2.182l-0.193 4.077 3.563-2.216 1.103 1.859-3.784 1.86 3.784 1.859-1.105 1.832-3.562-2.218 0.191 4.078h-2.182zM93.337 11.905v8.964h-2.902v-15.115h2.822v2.488h0.202c0.333-0.811 0.885-1.476 1.583-1.938l0.016-0.010c0.725-0.487 1.656-0.729 2.794-0.729 1.021 0 1.913 0.216 2.674 0.648 0.771 0.424 1.366 1.060 1.788 1.906 0.429 0.849 0.644 1.898 0.644 3.151v9.599h-2.902v-9.248c0-1.091-0.287-1.946-0.86-2.568-0.573-0.63-1.352-0.946-2.337-0.946-0.672 0-1.277 0.153-1.814 0.459-0.532 0.305-0.958 0.742-1.241 1.267l-0.008 0.017c-0.305 0.559-0.456 1.244-0.456 2.055zM82.080 20.87c-1.395 0-2.618-0.319-3.667-0.954-1.041-0.636-1.85-1.528-2.428-2.677-0.57-1.148-0.854-2.482-0.854-4.001 0-1.536 0.285-2.88 0.854-4.028 0.577-1.158 1.387-2.054 2.428-2.689 1.049-0.636 2.272-0.954 3.667-0.954 1.405 0 2.628 0.319 3.669 0.954s1.85 1.532 2.428 2.689c0.577 1.148 0.867 2.49 0.867 4.028 0 1.519-0.289 2.854-0.867 4.003-0.579 1.148-1.387 2.040-2.428 2.675s-2.264 0.954-3.669 0.954zM82.080 18.445c0.917 0 1.672-0.238 2.268-0.715s1.037-1.109 1.322-1.895c0.292-0.796 0.44-1.661 0.44-2.598 0-0.953-0.147-1.828-0.441-2.623-0.284-0.796-0.723-1.432-1.32-1.909-0.595-0.477-1.351-0.715-2.268-0.715-0.907 0-1.658 0.238-2.254 0.715-0.587 0.477-1.027 1.113-1.322 1.909-0.292 0.794-0.44 1.67-0.44 2.623 0 0.936 0.147 1.803 0.441 2.598 0.292 0.786 0.733 1.418 1.32 1.895 0.595 0.477 1.347 0.715 2.254 0.715zM73.436 9.382l-2.717 0.451c-0.174-0.495-0.501-0.95-0.978-1.365-0.469-0.416-1.173-0.623-2.111-0.623-0.846 0-1.554 0.185-2.123 0.557-0.562 0.362-0.842 0.826-0.842 1.391 0 0.495 0.188 0.897 0.565 1.206 0.387 0.309 0.998 0.557 1.835 0.742l2.468 0.53c1.405 0.309 2.46 0.794 3.158 1.458 0.698 0.662 1.048 1.51 1.048 2.543 0 0.892-0.267 1.688-0.8 2.385-0.533 0.69-1.273 1.233-2.221 1.631-0.946 0.39-2.041 0.583-3.282 0.583-1.728 0-3.135-0.358-4.22-1.073-1.085-0.717-1.752-1.722-1.999-3.022l2.883-0.424c0.184 0.725 0.557 1.273 1.116 1.643 0.57 0.371 1.306 0.557 2.207 0.557 0.974 0 1.756-0.199 2.344-0.595 0.598-0.398 0.897-0.879 0.897-1.444 0-0.936-0.726-1.568-2.179-1.895l-2.607-0.557c-1.443-0.319-2.51-0.818-3.2-1.497-0.679-0.69-1.020-1.555-1.020-2.598 0-0.875 0.253-1.643 0.758-2.305 0.515-0.662 1.219-1.176 2.111-1.537 0.9-0.371 1.926-0.557 3.075-0.557 1.674 0 2.984 0.348 3.93 1.046 0.922 0.666 1.598 1.623 1.895 2.734l0.008 0.035zM52.87 20.87v-15.089h2.922v2.417h0.168c0.284-0.806 0.813-1.466 1.496-1.908l0.015-0.009c0.677-0.448 1.508-0.716 2.402-0.716 0.020 0 0.041 0 0.061 0l-0.003-0c0.186 0 0.406 0.008 0.658 0.028 0.26 0.008 0.47 0.022 0.629 0.040v2.806c-0.187-0.047-0.411-0.085-0.64-0.106l-0.017-0.001c-0.281-0.035-0.607-0.055-0.937-0.056h-0c-0.718 0-1.361 0.149-1.93 0.445-0.559 0.289-1.002 0.69-1.327 1.202-0.299 0.48-0.477 1.063-0.477 1.687 0 0.024 0 0.047 0.001 0.071l-0-0.004v9.191h-3.021z"></path>
<path fill="#fafafa" style="fill: var(--color1, #fafafa)" d="M44.893 20.87c-1.503 0-2.805-0.313-3.905-0.941-1.091-0.625-1.96-1.529-2.527-2.615l-0.017-0.035c-0.586-1.148-0.879-2.486-0.879-4.015 0-1.519 0.288-2.858 0.865-4.014 0.563-1.129 1.404-2.046 2.435-2.687l0.028-0.016c1.063-0.654 2.31-0.981 3.738-0.981 0.871 0 1.714 0.136 2.529 0.41 0.853 0.292 1.587 0.735 2.204 1.303l-0.004-0.004c0.651 0.591 1.165 1.359 1.54 2.305 0.385 0.946 0.577 2.084 0.577 3.418v1.034h-12.223v-2.161h10.682l-1.389 0.717c0-0.91-0.146-1.714-0.44-2.413-0.276-0.676-0.731-1.231-1.308-1.621l-0.013-0.008c-0.577-0.398-1.297-0.597-2.157-0.597-0.863 0-1.6 0.199-2.215 0.597-0.596 0.392-1.069 0.925-1.378 1.553l-0.010 0.023c-0.32 0.654-0.481 1.369-0.481 2.147v1.471c0 1.016 0.184 1.878 0.551 2.584 0.366 0.707 0.875 1.247 1.525 1.617 0.661 0.371 1.426 0.557 2.296 0.557 0.569 0 1.082-0.079 1.54-0.238 0.467-0.16 0.871-0.398 1.21-0.715 0.339-0.319 0.595-0.712 0.769-1.18l2.833 0.516c-0.239 0.82-0.657 1.524-1.212 2.095l0.001-0.001c-0.577 0.601-1.305 1.069-2.184 1.405-0.872 0.327-1.866 0.49-2.984 0.49z"></path>
<path fill="#fafafa" style="fill: var(--color1, #fafafa)" d="M38.176 5.913v2.342h-8.959v-2.342h8.959zM31.659 20.87v-16.696c0-0.928 0.218-1.699 0.654-2.314 0.445-0.626 1.021-1.089 1.731-1.391 0.67-0.296 1.452-0.469 2.274-0.469 0.014 0 0.029 0 0.043 0h-0.002c0.633 0 1.173 0.049 1.618 0.147 0.445 0.097 0.771 0.182 0.979 0.253l-0.737 2.355c-0.125-0.042-0.311-0.092-0.5-0.137l-0.055-0.011c-0.226-0.052-0.486-0.081-0.753-0.081-0.024 0-0.048 0-0.073 0.001l0.004-0c-0.749 0-1.288 0.179-1.619 0.536-0.331 0.348-0.497 0.856-0.497 1.525v16.281h-3.066z"></path>
<path fill="#fafafa" style="fill: var(--color1, #fafafa)" d="M29.828 5.913v2.342h-8.959v-2.342h8.959zM23.311 20.87v-16.696c0-0.928 0.218-1.699 0.654-2.314 0.445-0.626 1.021-1.089 1.731-1.391 0.67-0.296 1.452-0.469 2.274-0.469 0.014 0 0.029 0 0.043 0h-0.002c0.633 0 1.173 0.049 1.618 0.147 0.445 0.097 0.771 0.182 0.979 0.253l-0.737 2.355c-0.125-0.042-0.311-0.092-0.5-0.137l-0.055-0.011c-0.226-0.052-0.486-0.081-0.753-0.081-0.024 0-0.048 0-0.073 0.001l0.004-0c-0.749 0-1.288 0.179-1.619 0.536-0.331 0.348-0.497 0.856-0.497 1.525v16.281h-3.066zM14.285 20.87c-1.503 0-2.805-0.313-3.905-0.941-1.091-0.625-1.96-1.529-2.527-2.615l-0.017-0.035c-0.586-1.148-0.879-2.486-0.879-4.015 0-1.519 0.289-2.858 0.867-4.014 0.562-1.128 1.401-2.046 2.431-2.687l0.028-0.016c1.064-0.654 2.311-0.981 3.743-0.981 0.871 0 1.714 0.136 2.529 0.41 0.853 0.292 1.587 0.735 2.204 1.303l-0.004-0.004c0.651 0.591 1.165 1.359 1.54 2.305 0.385 0.946 0.577 2.084 0.577 3.418v1.034h-12.224v-2.161h10.682l-1.389 0.717c0-0.91-0.146-1.714-0.44-2.413-0.276-0.676-0.731-1.231-1.308-1.621l-0.012-0.008c-0.577-0.398-1.297-0.597-2.157-0.597-0.863 0-1.6 0.199-2.215 0.597-0.596 0.392-1.069 0.925-1.378 1.553l-0.010 0.023c-0.32 0.654-0.481 1.369-0.481 2.147v1.471c0 1.016 0.184 1.878 0.551 2.584 0.366 0.707 0.875 1.247 1.525 1.617 0.661 0.371 1.426 0.557 2.296 0.557 0.569 0 1.082-0.079 1.54-0.238 0.467-0.16 0.871-0.398 1.21-0.715 0.339-0.319 0.595-0.712 0.769-1.18l2.833 0.516c-0.239 0.82-0.657 1.524-1.212 2.095l0.001-0.001c-0.577 0.601-1.305 1.069-2.184 1.405-0.872 0.327-1.867 0.49-2.984 0.49zM2.378 5.792h2.822v16.007c0.008 1.002-0.166 1.85-0.523 2.539-0.348 0.677-0.887 1.214-1.547 1.549l-0.020 0.009c-0.689 0.36-1.533 0.538-2.535 0.538h-0.575v-2.513h0.458c0.679 0 1.166-0.184 1.462-0.551s0.449-0.896 0.458-1.586v-15.993zM3.776 3.481c-0.497 0-0.918-0.171-1.267-0.511-0.322-0.302-0.523-0.73-0.523-1.205 0-0.007 0-0.013 0-0.020v0.001c0-0.483 0.174-0.895 0.523-1.235 0.348-0.341 0.771-0.511 1.266-0.511 0.488 0 0.907 0.17 1.255 0.511 0.358 0.341 0.536 0.753 0.536 1.237 0 0.474-0.178 0.882-0.536 1.223-0.348 0.339-0.765 0.511-1.254 0.511z"></path>
</symbol>
<symbol id="icon-arrow-narrow-right" viewBox="0 0 32 32">
<path fill="none" stroke-linejoin="round" stroke-linecap="round" stroke-miterlimit="4" stroke-width="2" d="M5.333 16h21.334M18.666 8l8 8-8 8"></path>
</symbol>
<symbol id="icon-dropdown-arrow" viewBox="0 0 32 32">
<path fill="none" stroke="#fafafa" style="stroke: var(--color1, #fafafa)" stroke-linejoin="miter" stroke-linecap="butt" stroke-miterlimit="4" stroke-width="3.2" d="M24 12l-8 8-8-8"></path>
</symbol>
<symbol id="icon-x-1" viewBox="0 0 32 32">
<path fill="none" stroke="#fafafa" style="stroke: var(--color1, #fafafa)" stroke-linejoin="round" stroke-linecap="round" stroke-miterlimit="4" stroke-width="2.2857" d="M24 8l-16 16M8 8l16 16"></path>
</symbol>
<symbol id="icon-Icon-2-1" viewBox="0 0 67 32">
<path fill="none" stroke="#fafafa" style="stroke: var(--color1, #fafafa)" stroke-linejoin="round" stroke-linecap="butt" stroke-miterlimit="4" stroke-width="5.8182" d="M1.455 2.647h61.091M1.455 26.415h61.091"></path>
</symbol>
<symbol id="icon-jefferson_-1-1" viewBox="0 0 141 32">
<path fill="#fafafa" style="fill: var(--color1, #fafafa)" d="M133.406 15.158l0.236-4.952-4.312 2.695-1.331-2.223 4.564-2.257-4.564-2.24 1.331-2.257 4.312 2.695-0.236-4.935h2.644l-0.236 4.935 4.312-2.695 1.347 2.257-4.581 2.24 4.581 2.257-1.347 2.223-4.312-2.695 0.236 4.952h-2.644zM112.977 14.4v10.863h-3.503v-18.307h3.402v3.015h0.253c0.4-0.984 1.070-1.79 1.918-2.346l0.019-0.012c0.876-0.589 2.004-0.876 3.385-0.876 1.229 0 2.307 0.253 3.234 0.775s1.651 1.28 2.156 2.307c0.522 1.027 0.792 2.307 0.792 3.823v11.621h-3.52v-11.2c0-1.331-0.354-2.358-1.044-3.116s-1.634-1.145-2.829-1.145c-0.808 0-1.549 0.185-2.189 0.556s-1.145 0.876-1.516 1.566c-0.371 0.674-0.556 1.499-0.556 2.476zM99.352 25.263c-1.684 0-3.166-0.387-4.446-1.162-1.259-0.789-2.259-1.887-2.91-3.188l-0.021-0.046c-0.691-1.398-1.027-3.015-1.027-4.851 0-1.869 0.337-3.486 1.027-4.884s1.684-2.476 2.931-3.251c1.28-0.775 2.762-1.145 4.446-1.145 1.701 0 3.183 0.371 4.446 1.145 1.263 0.791 2.264 1.895 2.91 3.205l0.021 0.046c0.707 1.398 1.061 3.015 1.061 4.884 0 1.836-0.354 3.453-1.061 4.851-0.672 1.348-1.672 2.445-2.898 3.215l-0.033 0.019c-1.263 0.775-2.745 1.162-4.446 1.162zM99.352 22.316c1.112 0 2.021-0.286 2.745-0.859s1.246-1.347 1.6-2.291c0.342-0.921 0.539-1.985 0.539-3.095 0-0.019-0-0.038-0-0.057v0.003c0-0.023 0-0.051 0-0.078 0-1.114-0.198-2.181-0.56-3.169l0.020 0.064c-0.354-0.96-0.876-1.718-1.6-2.307-0.724-0.573-1.634-0.859-2.745-0.859-1.095 0-2.004 0.286-2.728 0.859-0.707 0.589-1.246 1.347-1.6 2.307-0.342 0.924-0.539 1.992-0.539 3.105 0 0.027 0 0.055 0 0.082l-0-0.004c-0 0.016-0 0.035-0 0.055 0 1.11 0.198 2.174 0.56 3.158l-0.020-0.063c0.354 0.943 0.893 1.718 1.6 2.291 0.724 0.573 1.634 0.859 2.728 0.859zM88.893 11.352l-3.301 0.539c-0.202-0.589-0.606-1.145-1.179-1.651s-1.415-0.758-2.56-0.758c-1.011 0-1.869 0.236-2.56 0.674s-1.027 1.011-1.027 1.684c0 0.606 0.236 1.095 0.691 1.465 0.472 0.371 1.213 0.674 2.223 0.893l2.981 0.64c1.701 0.387 2.981 0.977 3.823 1.768 0.842 0.808 1.28 1.836 1.28 3.082 0 1.078-0.337 2.038-0.977 2.88s-1.533 1.499-2.695 1.987c-1.145 0.472-2.459 0.707-3.958 0.707-2.105 0-3.806-0.438-5.12-1.314-1.314-0.859-2.122-2.072-2.408-3.655l3.486-0.505c0.219 0.876 0.674 1.533 1.347 1.987 0.691 0.455 1.583 0.674 2.678 0.674 1.179 0 2.122-0.236 2.829-0.724 0.724-0.488 1.078-1.061 1.078-1.752 0-1.128-0.876-1.903-2.627-2.291l-3.149-0.674c-1.752-0.387-3.048-0.994-3.874-1.819s-1.246-1.869-1.246-3.133c0-1.061 0.303-1.987 0.926-2.796s1.465-1.415 2.543-1.853c1.095-0.455 2.341-0.674 3.722-0.674 2.038 0 3.621 0.421 4.766 1.263 1.162 0.842 1.92 1.954 2.307 3.352zM64 25.263v-18.274h3.537v2.931h0.202c0.337-0.994 0.96-1.752 1.819-2.324 0.876-0.573 1.869-0.859 2.981-0.859 0.219 0 0.488 0 0.792 0.017 0.32 0.017 0.573 0.034 0.775 0.051v3.402c-0.206-0.047-0.481-0.094-0.76-0.13l-0.048-0.005c-0.332-0.037-0.723-0.062-1.12-0.067l-0.008-0c-0.876 0-1.651 0.185-2.341 0.539-0.664 0.343-1.205 0.841-1.59 1.448l-0.010 0.017c-0.387 0.606-0.573 1.314-0.573 2.122v11.133h-3.655zM54.333 25.263c-1.819 0-3.385-0.387-4.716-1.145-1.347-0.758-2.358-1.836-3.082-3.217-0.707-1.381-1.061-2.998-1.061-4.851 0-1.836 0.337-3.469 1.044-4.867s1.701-2.493 2.981-3.267c1.28-0.792 2.796-1.179 4.514-1.179 0.024-0 0.052-0 0.080-0 1.068 0 2.095 0.179 3.051 0.508l-0.066-0.020c1.032 0.352 1.919 0.887 2.667 1.571l-0.006-0.005c0.792 0.724 1.415 1.651 1.869 2.796 0.472 1.145 0.707 2.526 0.707 4.143v1.246h-14.804v-2.611h12.935l-1.684 0.859c0-1.095-0.185-2.072-0.539-2.914s-0.876-1.499-1.583-1.971c-0.707-0.488-1.583-0.724-2.627-0.724s-1.937 0.236-2.678 0.724c-0.717 0.473-1.285 1.117-1.655 1.875l-0.012 0.028c-0.404 0.792-0.589 1.667-0.589 2.594v1.785c0 1.229 0.219 2.274 0.657 3.133 0.455 0.859 1.061 1.499 1.853 1.954 0.808 0.455 1.735 0.674 2.779 0.674 0.691 0 1.314-0.101 1.869-0.286 0.567-0.203 1.055-0.501 1.468-0.879l-0.003 0.003c0.404-0.371 0.724-0.859 0.926-1.415l3.436 0.623c-0.296 0.987-0.801 1.835-1.467 2.528l0.002-0.002c-0.707 0.724-1.583 1.297-2.644 1.701s-2.257 0.606-3.621 0.606zM46.198 7.158v2.829h-10.829v-2.829h10.829zM38.316 25.263v-20.211c0-1.128 0.269-2.072 0.792-2.813 0.524-0.739 1.231-1.316 2.056-1.672l0.032-0.012c0.817-0.352 1.767-0.556 2.766-0.556 0.017 0 0.033 0 0.050 0h-0.003c0.758 0 1.415 0.051 1.954 0.168s0.943 0.219 1.196 0.303l-0.909 2.863c-0.168-0.067-0.387-0.118-0.657-0.185s-0.606-0.101-1.011-0.101c-0.893 0-1.549 0.219-1.954 0.657-0.404 0.421-0.606 1.027-0.606 1.836v19.722h-3.705z"></path>
<path fill="#fafafa" style="fill: var(--color1, #fafafa)" d="M36.093 7.158v2.829h-10.829v-2.829h10.829zM28.211 25.263v-20.211c0-1.128 0.269-2.072 0.792-2.813 0.524-0.739 1.231-1.316 2.056-1.672l0.032-0.012c0.817-0.352 1.767-0.556 2.766-0.556 0.017 0 0.033 0 0.050 0h-0.003c0.758 0 1.415 0.051 1.954 0.168s0.943 0.219 1.196 0.303l-0.909 2.863c-0.168-0.067-0.387-0.118-0.657-0.185s-0.606-0.101-1.011-0.101c-0.893 0-1.549 0.219-1.954 0.657-0.404 0.421-0.606 1.027-0.606 1.836v19.722h-3.705zM17.28 25.263c-1.819 0-3.385-0.387-4.716-1.145-1.347-0.758-2.358-1.836-3.082-3.217-0.707-1.381-1.061-2.998-1.061-4.851 0-1.836 0.337-3.469 1.044-4.867s1.701-2.493 2.981-3.267c1.28-0.792 2.796-1.179 4.514-1.179 0.024-0 0.052-0 0.080-0 1.068 0 2.095 0.179 3.051 0.508l-0.066-0.020c1.032 0.352 1.919 0.887 2.667 1.571l-0.006-0.005c0.792 0.724 1.415 1.651 1.869 2.796 0.472 1.145 0.707 2.526 0.707 4.143v1.246h-14.804v-2.611h12.935l-1.684 0.859c0-1.095-0.185-2.072-0.539-2.914s-0.876-1.499-1.583-1.971c-0.707-0.488-1.583-0.724-2.627-0.724s-1.937 0.236-2.678 0.724c-0.717 0.473-1.285 1.117-1.655 1.875l-0.012 0.028c-0.404 0.792-0.589 1.667-0.589 2.594v1.785c0 1.229 0.219 2.274 0.657 3.133 0.455 0.859 1.061 1.499 1.853 1.954 0.808 0.455 1.735 0.674 2.779 0.674 0.691 0 1.314-0.101 1.869-0.286 0.567-0.203 1.055-0.501 1.468-0.879l-0.003 0.003c0.404-0.371 0.724-0.859 0.926-1.415l3.436 0.623c-0.296 0.987-0.801 1.835-1.467 2.528l0.002-0.002c-0.707 0.724-1.583 1.297-2.644 1.701s-2.257 0.606-3.621 0.606zM2.863 7.006h3.419v19.368c0.017 1.213-0.202 2.24-0.623 3.082-0.43 0.815-1.083 1.463-1.879 1.875l-0.024 0.012c-0.825 0.438-1.853 0.657-3.065 0.657h-0.691v-3.048h0.539c0.825 0 1.415-0.219 1.785-0.674 0.354-0.438 0.539-1.078 0.539-1.92v-19.352zM4.564 4.211c-0.606 0-1.112-0.219-1.533-0.623s-0.64-0.909-0.64-1.482c0-0.589 0.219-1.078 0.64-1.499 0.383-0.375 0.907-0.607 1.486-0.607 0.017 0 0.033 0 0.050 0.001l-0.002-0c0.589 0 1.095 0.202 1.516 0.606 0.438 0.421 0.657 0.909 0.657 1.499 0 0.573-0.219 1.078-0.657 1.482-0.385 0.385-0.917 0.623-1.504 0.623-0.004 0-0.008 0-0.013-0h0.001z"></path>
</symbol>
<svg aria-hidden="true" style="position: absolute; width: 0; height: 0; overflow: hidden;" version="1.1" xmlns="http://www.w3.org/2000/svg" xmlns:xlink="http://www.w3.org/1999/xlink">
<defs>
<symbol id="icon-arrow-review" viewBox="0 0 32 32">
<path fill="none" stroke="#fafafa" style="stroke: var(--color1, #fafafa)" stroke-linejoin="round" stroke-linecap="round" stroke-miterlimit="4" stroke-width="2" d="M5.333 16h21.334M18.666 8l8 8-8 8"></path>
</symbol>
</defs>
</svg>
</symbol>
<symbol id="icon-x" viewBox="0 0 32 32">
<path fill="none" stroke="#fafafa" style="stroke: var(--color1, #fafafa)" stroke-linejoin="round" stroke-linecap="round" stroke-miterlimit="4" stroke-width="2.9091" d="M24 8l-16 16"></path>
<path fill="none" stroke="#fafafa" style="stroke: var(--color1, #fafafa)" stroke-linejoin="round" stroke-linecap="round" stroke-miterlimit="4" stroke-width="2.9091" d="M8 8l16 16"></path>
</symbol>
</defs>
</svg>

